<mxfile host="app.diagrams.net" agent="Mozilla/5.0 (Windows NT 10.0; Win64; x64) AppleWebKit/537.36 (KHTML, like Gecko) Chrome/131.0.0.0 Safari/537.36" version="25.0.3">
  <diagram id="hplsWm4PVzK5DqkmVdou" name="หน้า-1">
    <mxGraphModel dx="1034" dy="446" grid="1" gridSize="10" guides="1" tooltips="1" connect="1" arrows="1" fold="1" page="1" pageScale="1" pageWidth="827" pageHeight="1169" math="0" shadow="0">
      <root>
        <mxCell id="0" />
        <mxCell id="1" parent="0" />
        <mxCell id="D0ou7oSdHgvKLoyhB2e9-3" value="" style="edgeStyle=orthogonalEdgeStyle;rounded=0;orthogonalLoop=1;jettySize=auto;html=1;" edge="1" parent="1" source="D0ou7oSdHgvKLoyhB2e9-1" target="D0ou7oSdHgvKLoyhB2e9-2">
          <mxGeometry relative="1" as="geometry" />
        </mxCell>
        <mxCell id="D0ou7oSdHgvKLoyhB2e9-1" value="start" style="strokeWidth=2;html=1;shape=mxgraph.flowchart.start_1;whiteSpace=wrap;" vertex="1" parent="1">
          <mxGeometry x="360" y="100" width="100" height="60" as="geometry" />
        </mxCell>
        <mxCell id="D0ou7oSdHgvKLoyhB2e9-5" value="" style="edgeStyle=orthogonalEdgeStyle;rounded=0;orthogonalLoop=1;jettySize=auto;html=1;" edge="1" parent="1" source="D0ou7oSdHgvKLoyhB2e9-2" target="D0ou7oSdHgvKLoyhB2e9-4">
          <mxGeometry relative="1" as="geometry" />
        </mxCell>
        <mxCell id="D0ou7oSdHgvKLoyhB2e9-2" value="สร้างตัวแปร&amp;nbsp;&lt;div&gt;int num&lt;/div&gt;&lt;div&gt;int n&lt;/div&gt;&lt;div&gt;int sum = 0&lt;/div&gt;&lt;div&gt;float average&lt;/div&gt;" style="whiteSpace=wrap;html=1;strokeWidth=2;" vertex="1" parent="1">
          <mxGeometry x="330" y="240" width="160" height="100" as="geometry" />
        </mxCell>
        <mxCell id="D0ou7oSdHgvKLoyhB2e9-7" value="" style="edgeStyle=orthogonalEdgeStyle;rounded=0;orthogonalLoop=1;jettySize=auto;html=1;" edge="1" parent="1" source="D0ou7oSdHgvKLoyhB2e9-4" target="D0ou7oSdHgvKLoyhB2e9-6">
          <mxGeometry relative="1" as="geometry" />
        </mxCell>
        <mxCell id="D0ou7oSdHgvKLoyhB2e9-4" value="แสดงคำว่า Enter values n :" style="shape=parallelogram;perimeter=parallelogramPerimeter;whiteSpace=wrap;html=1;fixedSize=1;strokeWidth=2;" vertex="1" parent="1">
          <mxGeometry x="290" y="440" width="240" height="60" as="geometry" />
        </mxCell>
        <mxCell id="D0ou7oSdHgvKLoyhB2e9-9" value="" style="edgeStyle=orthogonalEdgeStyle;rounded=0;orthogonalLoop=1;jettySize=auto;html=1;" edge="1" parent="1" source="D0ou7oSdHgvKLoyhB2e9-6" target="D0ou7oSdHgvKLoyhB2e9-8">
          <mxGeometry relative="1" as="geometry" />
        </mxCell>
        <mxCell id="D0ou7oSdHgvKLoyhB2e9-6" value="รับค่าจากผู้ใช้" style="shape=parallelogram;perimeter=parallelogramPerimeter;whiteSpace=wrap;html=1;fixedSize=1;strokeWidth=2;" vertex="1" parent="1">
          <mxGeometry x="350" y="580" width="120" height="60" as="geometry" />
        </mxCell>
        <mxCell id="D0ou7oSdHgvKLoyhB2e9-11" value="" style="edgeStyle=orthogonalEdgeStyle;rounded=0;orthogonalLoop=1;jettySize=auto;html=1;" edge="1" parent="1" source="D0ou7oSdHgvKLoyhB2e9-8" target="D0ou7oSdHgvKLoyhB2e9-10">
          <mxGeometry relative="1" as="geometry" />
        </mxCell>
        <mxCell id="D0ou7oSdHgvKLoyhB2e9-8" value="int i = 1" style="whiteSpace=wrap;html=1;strokeWidth=2;" vertex="1" parent="1">
          <mxGeometry x="350" y="720" width="120" height="60" as="geometry" />
        </mxCell>
        <mxCell id="D0ou7oSdHgvKLoyhB2e9-15" value="" style="edgeStyle=orthogonalEdgeStyle;rounded=0;orthogonalLoop=1;jettySize=auto;html=1;" edge="1" parent="1" source="D0ou7oSdHgvKLoyhB2e9-10" target="D0ou7oSdHgvKLoyhB2e9-14">
          <mxGeometry relative="1" as="geometry" />
        </mxCell>
        <mxCell id="D0ou7oSdHgvKLoyhB2e9-24" style="edgeStyle=orthogonalEdgeStyle;rounded=0;orthogonalLoop=1;jettySize=auto;html=1;exitX=0;exitY=0.5;exitDx=0;exitDy=0;entryX=0;entryY=0.5;entryDx=0;entryDy=0;" edge="1" parent="1" source="D0ou7oSdHgvKLoyhB2e9-10" target="D0ou7oSdHgvKLoyhB2e9-25">
          <mxGeometry relative="1" as="geometry">
            <mxPoint x="170" y="1660" as="targetPoint" />
            <Array as="points">
              <mxPoint x="150" y="890" />
              <mxPoint x="150" y="1680" />
              <mxPoint x="324" y="1680" />
            </Array>
          </mxGeometry>
        </mxCell>
        <mxCell id="D0ou7oSdHgvKLoyhB2e9-10" value="i &amp;lt;= n" style="rhombus;whiteSpace=wrap;html=1;strokeWidth=2;" vertex="1" parent="1">
          <mxGeometry x="370" y="850" width="80" height="80" as="geometry" />
        </mxCell>
        <mxCell id="D0ou7oSdHgvKLoyhB2e9-17" value="" style="edgeStyle=orthogonalEdgeStyle;rounded=0;orthogonalLoop=1;jettySize=auto;html=1;" edge="1" parent="1" source="D0ou7oSdHgvKLoyhB2e9-14" target="D0ou7oSdHgvKLoyhB2e9-16">
          <mxGeometry relative="1" as="geometry" />
        </mxCell>
        <mxCell id="D0ou7oSdHgvKLoyhB2e9-14" value="แสดง Enter Number&amp;nbsp; :" style="shape=parallelogram;perimeter=parallelogramPerimeter;whiteSpace=wrap;html=1;fixedSize=1;strokeWidth=2;" vertex="1" parent="1">
          <mxGeometry x="305" y="1020" width="210" height="80" as="geometry" />
        </mxCell>
        <mxCell id="D0ou7oSdHgvKLoyhB2e9-19" value="" style="edgeStyle=orthogonalEdgeStyle;rounded=0;orthogonalLoop=1;jettySize=auto;html=1;" edge="1" parent="1" source="D0ou7oSdHgvKLoyhB2e9-16" target="D0ou7oSdHgvKLoyhB2e9-18">
          <mxGeometry relative="1" as="geometry" />
        </mxCell>
        <mxCell id="D0ou7oSdHgvKLoyhB2e9-16" value="รับค่าจากผู้ใช้" style="shape=parallelogram;perimeter=parallelogramPerimeter;whiteSpace=wrap;html=1;fixedSize=1;strokeWidth=2;" vertex="1" parent="1">
          <mxGeometry x="350" y="1190" width="120" height="60" as="geometry" />
        </mxCell>
        <mxCell id="D0ou7oSdHgvKLoyhB2e9-23" value="" style="edgeStyle=orthogonalEdgeStyle;rounded=0;orthogonalLoop=1;jettySize=auto;html=1;" edge="1" parent="1" source="D0ou7oSdHgvKLoyhB2e9-18" target="D0ou7oSdHgvKLoyhB2e9-22">
          <mxGeometry relative="1" as="geometry" />
        </mxCell>
        <mxCell id="D0ou7oSdHgvKLoyhB2e9-18" value="sum += number&amp;nbsp;" style="whiteSpace=wrap;html=1;strokeWidth=2;" vertex="1" parent="1">
          <mxGeometry x="350" y="1330" width="120" height="60" as="geometry" />
        </mxCell>
        <mxCell id="D0ou7oSdHgvKLoyhB2e9-21" value="T" style="text;html=1;align=center;verticalAlign=middle;resizable=0;points=[];autosize=1;strokeColor=none;fillColor=none;" vertex="1" parent="1">
          <mxGeometry x="435" y="938" width="30" height="30" as="geometry" />
        </mxCell>
        <mxCell id="D0ou7oSdHgvKLoyhB2e9-22" value="i ++" style="whiteSpace=wrap;html=1;strokeWidth=2;" vertex="1" parent="1">
          <mxGeometry x="350" y="1470" width="120" height="60" as="geometry" />
        </mxCell>
        <mxCell id="D0ou7oSdHgvKLoyhB2e9-28" value="" style="edgeStyle=orthogonalEdgeStyle;rounded=0;orthogonalLoop=1;jettySize=auto;html=1;" edge="1" parent="1" source="D0ou7oSdHgvKLoyhB2e9-25" target="D0ou7oSdHgvKLoyhB2e9-27">
          <mxGeometry relative="1" as="geometry" />
        </mxCell>
        <mxCell id="D0ou7oSdHgvKLoyhB2e9-25" value="average = (float) sum / n" style="whiteSpace=wrap;html=1;" vertex="1" parent="1">
          <mxGeometry x="324" y="1650" width="180" height="60" as="geometry" />
        </mxCell>
        <mxCell id="D0ou7oSdHgvKLoyhB2e9-26" value="F" style="text;html=1;align=center;verticalAlign=middle;resizable=0;points=[];autosize=1;strokeColor=none;fillColor=none;" vertex="1" parent="1">
          <mxGeometry x="335" y="848" width="30" height="30" as="geometry" />
        </mxCell>
        <mxCell id="D0ou7oSdHgvKLoyhB2e9-30" value="" style="edgeStyle=orthogonalEdgeStyle;rounded=0;orthogonalLoop=1;jettySize=auto;html=1;" edge="1" parent="1" source="D0ou7oSdHgvKLoyhB2e9-27" target="D0ou7oSdHgvKLoyhB2e9-29">
          <mxGeometry relative="1" as="geometry" />
        </mxCell>
        <mxCell id="D0ou7oSdHgvKLoyhB2e9-27" value="แสดงผล รวมของตัวเลขทั้งหมด" style="shape=parallelogram;perimeter=parallelogramPerimeter;whiteSpace=wrap;html=1;fixedSize=1;" vertex="1" parent="1">
          <mxGeometry x="306" y="1790" width="216" height="60" as="geometry" />
        </mxCell>
        <mxCell id="D0ou7oSdHgvKLoyhB2e9-32" value="" style="edgeStyle=orthogonalEdgeStyle;rounded=0;orthogonalLoop=1;jettySize=auto;html=1;" edge="1" parent="1" source="D0ou7oSdHgvKLoyhB2e9-29" target="D0ou7oSdHgvKLoyhB2e9-31">
          <mxGeometry relative="1" as="geometry" />
        </mxCell>
        <mxCell id="D0ou7oSdHgvKLoyhB2e9-29" value="แสดงค่าเฉลี่ย" style="shape=parallelogram;perimeter=parallelogramPerimeter;whiteSpace=wrap;html=1;fixedSize=1;" vertex="1" parent="1">
          <mxGeometry x="354" y="1930" width="120" height="60" as="geometry" />
        </mxCell>
        <mxCell id="D0ou7oSdHgvKLoyhB2e9-31" value="end" style="strokeWidth=2;html=1;shape=mxgraph.flowchart.start_1;whiteSpace=wrap;" vertex="1" parent="1">
          <mxGeometry x="364" y="2060" width="100" height="60" as="geometry" />
        </mxCell>
      </root>
    </mxGraphModel>
  </diagram>
</mxfile>
